<svg xmlns="http://www.w3.org/2000/svg" viewBox="0 0 100 100" width="100" height="100">
  <rect width="100" height="100" rx="22" fill="#2E7BD6"/>
  <g transform="translate(50 50) scale(0.92) translate(-47 -46.5)">
    <g fill="#FFC83D">
      <rect x="47.5" y="6" width="5" height="13" rx="2.5" transform="rotate(0 50 44)"/>
      <rect x="47.5" y="6" width="5" height="13" rx="2.5" transform="rotate(45 50 44)"/>
      <rect x="47.5" y="6" width="5" height="13" rx="2.5" transform="rotate(90 50 44)"/>
      <rect x="47.5" y="6" width="5" height="13" rx="2.5" transform="rotate(135 50 44)"/>
      <rect x="47.5" y="6" width="5" height="13" rx="2.5" transform="rotate(180 50 44)"/>
      <rect x="47.5" y="6" width="5" height="13" rx="2.5" transform="rotate(225 50 44)"/>
      <rect x="47.5" y="6" width="5" height="13" rx="2.5" transform="rotate(270 50 44)"/>
      <rect x="47.5" y="6" width="5" height="13" rx="2.5" transform="rotate(315 50 44)"/>
    </g>
    <circle cx="50" cy="44" r="19" fill="#FFC83D"/>
    <path d="M10 72 q9 -8 18 0 t18 0 t18 0 t18 0" fill="none" stroke="#FFFFFF" stroke-width="6" stroke-linecap="round"/>
    <path d="M15 84 q9 -8 18 0 t18 0 t18 0" fill="none" stroke="#FFFFFF" stroke-width="6" stroke-linecap="round"/>
  </g>
</svg>
